# File created by Blade
# Date/Time:  Wed Jan 21 16:02:01 2015
# Frame Rate: 120.000 fps
#------------------------------------------------------
:FULLY-SPECIFIED
:DEGREES
2009
root 21.325461 34.208963 -13.100280 -185.243444 -16.423701 -186.330666
Spine -11.879192 -0.980337 -8.278813
Head 21.299609 3.336852 -6.256355
LeftShoulder -10.862273 -20.856713 -7.329902
LeftArm -15.727525 21.380219 -69.474902
LeftForeArm 15.176638 -0.000000 72.872158
LeftHand -7.704628 0.000000 -7.139245
LeftHandThumb1 -26.253704 0.000000 33.147579
RightShoulder -8.699044 -21.220158 2.652361
RightArm 15.572855 -13.403184 69.425364
RightForeArm -26.777251 -0.000000 51.240725
RightHand 1.156787 0.000000 -12.922841
RightHandThumb1 -24.326973 -0.000000 -32.862282
LeftUpLeg 16.770127 -1.611414 -18.801484
LeftLeg 7.630234 -0.000000 -0.000000
LeftFoot -27.540000 9.720849 -10.824752
LeftToeBase 23.575715 -0.000000 -0.000000
RightUpLeg -30.036141 -10.675068 12.454324
RightLeg 15.960135 -0.000000 -0.000000
RightFoot 16.938941 -35.262422 -2.935606
RightToeBase 2.002837 -0.000000 -0.000000
2010
root 21.375767 34.240951 -13.030955 -185.437894 -16.304259 -186.242540
Spine -11.718087 -0.827587 -8.349810
Head 21.364446 3.168952 -5.981693
LeftShoulder -10.859374 -20.744464 -7.235117
LeftArm -15.886029 21.218980 -69.515394
LeftForeArm 14.520681 0.000000 72.506145
LeftHand -7.471264 0.000000 -6.951905
LeftHandThumb1 -26.253704 0.000000 33.147579
RightShoulder -8.736682 -21.304477 2.758591
RightArm 15.885488 -13.724380 69.163992
RightForeArm -26.543705 -0.000000 51.267367
RightHand 1.248714 -0.000000 -12.866032
RightHandThumb1 -24.326973 -0.000000 -32.862282
LeftUpLeg 16.771735 -1.467316 -18.639585
LeftLeg 7.639559 -0.000000 -0.000000
LeftFoot -27.392012 9.656831 -10.860751
LeftToeBase 23.690397 -0.000000 -0.000000
RightUpLeg -29.935535 -10.666201 12.385557
RightLeg 15.667798 -0.000000 -0.000000
RightFoot 15.188679 -35.896425 -1.990237
RightToeBase 2.664484 -0.000000 -0.000000
2011
root 21.424603 34.269223 -12.963657 -185.614776 -16.144035 -186.161404
Spine -11.560258 -0.737035 -8.407683
Head 21.401150 3.140730 -5.728517
LeftShoulder -10.937515 -20.628349 -7.123999
LeftArm -16.062063 21.005183 -69.493264
LeftForeArm 14.007183 0.000000 72.251106
LeftHand -7.544574 -0.000000 -7.013216
LeftHandThumb1 -26.253704 0.000000 33.147579
RightShoulder -8.619916 -21.277972 2.794066
RightArm 16.033273 -13.953207 68.990675
RightForeArm -26.522267 -0.000000 51.338564
RightHand 1.160808 -0.000000 -12.766190
RightHandThumb1 -24.326973 -0.000000 -32.862282
LeftUpLeg 16.782558 -1.354155 -18.506724
LeftLeg 7.596167 -0.000000 -0.000000
LeftFoot -27.274063 9.653251 -10.912802
LeftToeBase 23.745675 -0.000000 -0.000000
RightUpLeg -29.847971 -10.598419 12.304389
RightLeg 15.444118 -0.000000 -0.000000
RightFoot 13.727541 -36.206376 -1.318919
RightToeBase 2.807525 -0.000000 -0.000000
2012
root 21.470429 34.295408 -12.896864 -185.795222 -15.998190 -186.050593
Spine -11.376284 -0.672045 -8.404259
Head 21.421840 3.067615 -5.514603
LeftShoulder -11.003790 -20.524928 -7.039721
LeftArm -16.268545 20.777270 -69.483853
LeftForeArm 13.444269 -0.000000 71.902207
LeftHand -7.431841 -0.000000 -6.908348
LeftHandThumb1 -26.253704 0.000000 33.147579
RightShoulder -8.600909 -21.341561 2.848156
RightArm 16.367646 -14.224926 68.733141
RightForeArm -26.421869 -0.000000 51.361076
RightHand 1.087669 -0.000000 -12.724676
RightHandThumb1 -24.326973 -0.000000 -32.862282
LeftUpLeg 16.777771 -1.248484 -18.349099
LeftLeg 7.594853 -0.000000 -0.000000
LeftFoot -27.188924 9.648150 -10.939759
LeftToeBase 23.778431 -0.000000 -0.000000
RightUpLeg -29.752751 -10.595730 12.260713
RightLeg 15.225349 -0.000000 -0.000000
RightFoot 12.374957 -36.328932 -0.693554
RightToeBase 2.655856 -0.000000 -0.000000
2013
root 21.516169 34.319960 -12.830330 -185.941728 -15.830138 -185.989045
Spine -11.202422 -0.573606 -8.474001
Head 21.420624 2.987038 -5.268735
LeftShoulder -11.006418 -20.343610 -7.006124
LeftArm -16.436535 20.516866 -69.364440
LeftForeArm 12.985882 0.000000 71.655203
LeftHand -7.575645 -0.000000 -6.856107
LeftHandThumb1 -26.253704 0.000000 33.147579
RightShoulder -8.497823 -21.162594 2.867904
RightArm 16.353883 -14.410676 68.630951
RightForeArm -26.458686 -0.000000 51.450152
RightHand 1.137681 -0.000000 -12.491607
RightHandThumb1 -24.326973 -0.000000 -32.862282
LeftUpLeg 16.753043 -1.070634 -18.210569
LeftLeg 7.582738 -0.000000 -0.000000
LeftFoot -27.083069 9.575278 -10.964733
LeftToeBase 23.814839 -0.000000 -0.000000
RightUpLeg -29.664252 -10.504826 12.134785
RightLeg 15.064903 -0.000000 -0.000000
RightFoot 11.119079 -36.210067 -0.244106
RightToeBase 2.873266 -0.000000 -0.000000
2014
root 21.560491 34.341726 -12.768105 -186.104002 -15.627125 -185.938898
Spine -10.997456 -0.483437 -8.564927
Head 21.378811 2.953319 -5.023422
LeftShoulder -11.043710 -20.261246 -6.867703
LeftArm -16.750609 20.221388 -69.352358
LeftForeArm 12.711747 -0.000000 71.393652
LeftHand -7.759756 -0.000000 -6.850500
LeftHandThumb1 -26.253704 0.000000 33.147579
RightShoulder -8.380965 -21.005177 2.886304
RightArm 16.389692 -14.628731 68.524887
RightForeArm -26.283138 -0.000000 51.522217
RightHand 1.077833 0.000000 -12.529213
RightHandThumb1 -24.326973 -0.000000 -32.862282
LeftUpLeg 16.783548 -0.926786 -18.102180
LeftLeg 7.501994 -0.000000 -0.000000
LeftFoot -26.971572 9.602551 -10.997736
LeftToeBase 23.716104 -0.000000 -0.000000
RightUpLeg -29.546829 -10.370878 12.001061
RightLeg 14.925693 -0.000000 -0.000000
RightFoot 10.025985 -36.057238 -0.125432
RightToeBase 3.299804 -0.000000 -0.000000
2015
root 21.606506 34.363030 -12.703505 -186.242957 -15.439187 -185.900134
Spine -10.784534 -0.415972 -8.676198
Head 21.381056 2.942591 -4.770934
LeftShoulder -11.022573 -20.186402 -6.775445
LeftArm -17.087491 19.940766 -69.275134
LeftForeArm 12.411641 -0.000000 71.107599
LeftHand -7.854050 -0.000000 -6.670504
LeftHandThumb1 -26.253704 0.000000 33.147579
RightShoulder -8.338375 -21.048431 2.971561
RightArm 16.704944 -14.818037 68.313269
RightForeArm -26.248345 -0.000000 51.554113
RightHand 0.982523 0.000000 -12.438273
RightHandThumb1 -24.326973 -0.000000 -32.862282
LeftUpLeg 16.771403 -0.776281 -17.994058
LeftLeg 7.467601 -0.000000 -0.000000
LeftFoot -26.863670 9.527625 -11.017616
LeftToeBase 23.790990 -0.000000 -0.000000
RightUpLeg -29.451245 -10.218978 11.849362
RightLeg 14.840576 -0.000000 -0.000000
RightFoot 8.887275 -35.907840 0.386647
RightToeBase 3.034438 -0.000000 -0.000000
